:FULLY-SPECIFIED
:FORCE-ALL-JOINTS-BE-3DOF
:DEGREES
1937
root 5.75472 13.7085 27.9971 -25.0957 70.5973 -28.225
lfemur -60.9222 3.32501 -1.57064
ltibia 59.7051 -0 0
lfoot 1.48756 -2.09962 -0.0407023
ltoes -31.6025 0 0
rfemur -4.58942 1.26737 17.747
rtibia 66.4696 -0 0
rfoot -23.38 -24.7245 -0.0285305
rtoes -28.4099 0 0
lowerback 13.6399 4.61958 4.11999
upperback -0.394588 7.15251 3.3992
thorax -8.00368 3.40217 -0.133299
lowerneck -0.884431 15.776 6.4241
upperneck 6.13985 21.515 -7.0906
head 3.75293 10.6749 -2.33079
lclavicle 3.12589e-014 -9.54166e-015 0
lhumerus 72.3681 -32.7694 40.7944
lradius 57.9968 -0 0
lwrist 21.5269 0 0
lhand -5.71047 32.049 -0.0244943
lfingers 7.12502 -0 0
lthumb 20.1134 61.0833 -0.0188683
rclavicle 3.12589e-014 -9.54166e-015 0
rhumerus -32.4211 30.916 -74.5001
rradius 89.2526 -0 0
rwrist -29.081 0 0
rhand -14.8559 -45.7551 0.0225206
rfingers 7.12502 -0 0
rthumb 11.3024 -75.4069 0.0267113
1938
root 5.61407 13.7306 28.0343 -26.1115 71.3894 -29.3196
lfemur -60.7312 2.30219 -1.23612
ltibia 57.3545 -0 0
lfoot 2.00706 -2.6444 -0.0406866
ltoes -31.2386 0 0
rfemur -5.01195 2.21509 18.2352
rtibia 66.6697 -0 0
rfoot -23.3784 -24.5492 -0.0374214
rtoes -29.1545 0 0
lowerback 13.6838 4.58794 4.09057
upperback -0.403991 7.10684 3.37644
thorax -8.04006 3.3794 -0.136745
lowerneck -0.901238 15.7492 6.45789
upperneck 6.11051 21.4769 -7.13325
head 3.73265 10.6543 -2.33644
lclavicle 3.12589e-014 -9.54166e-015 0
lhumerus 74.1241 -33.4843 38.8974
lradius 61.2265 -0 0
lwrist 22.9271 0 0
lhand -5.97387 32.2966 -0.0394344
lfingers 7.12502 -0 0
lthumb 19.8601 61.3565 -0.0342343
rclavicle 3.12589e-014 -9.54166e-015 0
rhumerus -31.1783 32.0021 -74.0803
rradius 89.2889 -0 0
rwrist -29.0116 0 0
rhand -14.4498 -45.6066 0.0351387
rfingers 7.12502 -0 0
rthumb 11.6938 -75.2307 0.0400084
1939
root 5.47343 13.7528 28.0715 -27.2917 72.2061 -30.5927
lfemur -60.5326 1.23899 -0.873677
ltibia 54.8479 -0 0
lfoot 2.53956 -3.23784 -0.0350234
ltoes -30.8348 0 0
rfemur -5.42696 3.20273 18.754
rtibia 66.8227 -0 0
rfoot -23.3903 -24.3746 -0.0463863
rtoes -29.9592 0 0
lowerback 13.7254 4.55109 4.07418
upperback -0.417399 7.05651 3.35386
thorax -8.07805 3.35373 -0.146181
lowerneck -0.91827 15.7186 6.49731
upperneck 6.08066 21.4333 -7.17596
head 3.71098 10.631 -2.34219
lclavicle 3.12589e-014 -9.54166e-015 0
lhumerus 75.9449 -34.1225 37.0404
lradius 64.5732 -0 0
lwrist 24.1357 0 0
lhand -6.33608 32.573 -0.0554799
lfingers 7.12502 -0 0
lthumb 19.5115 61.6635 -0.0511894
rclavicle 3.12589e-014 -9.54166e-015 0
rhumerus -29.9524 33.1379 -73.6684
rradius 89.3898 -0 0
rwrist -29.0388 0 0
rhand -13.9954 -45.4098 0.0486333
rfingers 7.12502 -0 0
rthumb 12.1316 -75.003 0.0540156
1940
root 5.33278 13.775 28.1087 -28.6628 73.0432 -32.0686
lfemur -60.3307 0.149521 -0.495781
ltibia 52.2261 -0 0
lfoot 3.07697 -3.86666 -0.0235035
ltoes -30.3995 0 0
rfemur -5.8335 4.21648 19.2968
rtibia 66.9335 -0 0
rfoot -23.4161 -24.2035 -0.0551035
rtoes -30.8097 0 0
lowerback 13.7648 4.50906 4.06987
upperback -0.43421 7.00146 3.33189
thorax -8.11735 3.32522 -0.160622
lowerneck -0.935574 15.6843 6.54121
upperneck 6.04975 21.3844 -7.21892
head 3.68796 10.6051 -2.3482
lclavicle 3.12589e-014 -9.54166e-015 0
lhumerus 77.809 -34.6861 35.2274
lradius 68.0098 -0 0
lwrist 25.1648 0 0
lhand -6.78434 32.8733 -0.0713684
lfingers 7.12502 -0 0
lthumb 19.0799 61.9989 -0.0683237
rclavicle 3.12589e-014 -9.54166e-015 0
rhumerus -28.7483 34.3115 -73.262
rradius 89.5496 -0 0
rwrist -29.1565 0 0
rhand -13.4989 -45.1711 0.0620038
rfingers 7.12502 -0 0
rthumb 12.6101 -74.7307 0.0677255
1941
root 5.19214 13.7971 28.1459 -30.2566 73.8961 -33.7779
lfemur -60.1294 -0.951968 -0.11464
ltibia 49.53 -0 0
lfoot 3.61124 -4.51757 -0.00632516
ltoes -29.9414 0 0
rfemur -6.23109 5.24243 19.8569
rtibia 67.0068 -0 0
rfoot -23.4566 -24.0388 -0.0632526
rtoes -31.6919 0 0
lowerback 13.8023 4.46188 4.07668
upperback -0.453827 6.94163 3.31091
thorax -8.15767 3.29391 -0.179086
lowerneck -0.953194 15.6464 6.58844
upperneck 6.01722 21.3303 -7.26229
head 3.66367 10.5766 -2.35464
lclavicle 3.12589e-014 -9.54166e-015 0
lhumerus 79.6949 -35.1783 33.4627
lradius 71.5092 -0 0
lwrist 26.0264 0 0
lhand -7.30588 33.1929 -0.085924
lfingers 7.12502 -0 0
lthumb 18.5776 62.3573 -0.0843151
rclavicle 3.12589e-014 -9.54166e-015 0
rhumerus -27.5716 35.5107 -72.86
rradius 89.7628 -0 0
rwrist -29.3581 0 0
rhand -12.9661 -44.8972 0.0743102
rfingers 7.12502 -0 0
rthumb 13.1235 -74.4206 0.0801948
1942
root 5.05149 13.8193 28.1831 -32.1127 74.7594 -35.758
lfemur -59.932 -2.05111 0.257781
ltibia 46.8004 -0 0
lfoot 4.13433 -5.17729 0.0158842
ltoes -29.4691 0 0
rfemur -6.6197 6.26655 20.4279
rtibia 67.0474 -0 0
rfoot -23.512 -23.8832 -0.070518
rtoes -32.5915 0 0
lowerback 13.8383 4.40959 4.09367
upperback -0.475651 6.87699 3.29136
thorax -8.19868 3.25987 -0.200588
lowerneck -0.971175 15.6049 6.63785
upperneck 5.98254 21.271 -7.30624
head 3.63814 10.5456 -2.36164
lclavicle 3.12589e-014 -9.54166e-015 0
lhumerus 81.5809 -35.6033 31.7508
lradius 75.0443 -0 0
lwrist 26.7327 0 0
lhand -7.88791 33.5269 -0.0981149
lfingers 7.12502 -0 0
lthumb 18.017 62.7332 -0.0979937
rclavicle 3.12589e-014 -9.54166e-015 0
rhumerus -26.4286 36.7235 -72.4622
rradius 90.0236 -0 0
rwrist -29.6375 0 0
rhand -12.4031 -44.5946 0.0847163
rfingers 7.12502 -0 0
rthumb 13.666 -74.0795 0.0905873
1943
root 4.91085 13.8415 28.2203 -34.2788 75.6269 -38.0552
lfemur -59.741 -3.13341 0.609716
ltibia 44.0782 -0 0
lfoot 4.63822 -5.83258 0.0420666
ltoes -28.991 0 0
rfemur -6.9998 7.27475 21.0037
rtibia 67.06 -0 0
rfoot -23.5831 -23.7394 -0.0765932
rtoes -33.4942 0 0
lowerback 13.873 4.35222 4.11988
upperback -0.499087 6.80747 3.27363
thorax -8.2401 3.22313 -0.224146
lowerneck -0.989561 15.5598 6.6883
upperneck 5.94514 21.2067 -7.35094
head 3.61144 10.5121 -2.36939
lclavicle 3.12589e-014 -9.54166e-015 0
lhumerus 83.4457 -35.9665 30.0963
lradius 78.5879 -0 0
lwrist 27.2957 0 0
lhand -8.51765 33.8706 -0.1071
lfingers 7.12502 -0 0
lthumb 17.4104 63.121 -0.108395
rclavicle 3.12589e-014 -9.54166e-015 0
rhumerus -25.3264 37.938 -72.0694
rradius 90.3265 -0 0
rwrist -29.9881 0 0
rhand -11.816 -44.2697 0.0925251
rfingers 7.12502 -0 0
rthumb 14.2318 -73.7143 0.098211
1944
root 4.7702 13.8636 28.2574 -36.8134 76.4908 -40.7262
lfemur -59.5584 -4.18427 0.92954
ltibia 41.4043 -0 0
lfoot 5.11492 -6.47021 0.0707498
ltoes -28.5159 0 0
rfemur -7.37234 8.25285 21.5782
rtibia 67.0495 -0 0
rfoot -23.6703 -23.6104 -0.0811846
rtoes -34.3859 0 0
lowerback 13.9067 4.28982 4.15436
upperback -0.523539 6.73303 3.25813
thorax -8.28161 3.18376 -0.248776
lowerneck -1.00839 15.5112 6.73865
upperneck 5.9045 21.1374 -7.39655
head 3.58363 10.4763 -2.37803
lclavicle 3.12589e-014 -9.54166e-015 0
lhumerus 85.2687 -36.2739 28.5034
lradius 82.113 -0 0
lwrist 27.7276 0 0
lhand -9.18229 34.2192 -0.112265
lfingers 7.12502 -0 0
lthumb 16.7701 63.5153 -0.1148
rclavicle 3.12589e-014 -9.54166e-015 0
rhumerus -24.2732 39.1424 -71.6839
rradius 90.6659 -0 0
rwrist -30.4038 0 0
rhand -11.2106 -43.9292 0.0972084
rfingers 7.12502 -0 0
rthumb 14.8151 -73.3319 0.102548
1945
root 4.62956 13.8858 28.2946 -39.7868 77.3418 -43.8396
lfemur -59.3857 -5.189 1.20573
ltibia 38.8194 -0 0
lfoot 5.55648 -7.07699 0.100083
ltoes -28.0522 0 0
rfemur -7.73873 9.1866 22.1453
rtibia 67.0206 -0 0
rfoot -23.7741 -23.4987 -0.0840163
rtoes -35.2522 0 0
lowerback 13.9396 4.22242 4.19616
upperback -0.548414 6.65362 3.24527
thorax -8.32291 3.14181 -0.273497
lowerneck -1.02771 15.4591 6.78775
upperneck 5.86006 21.0632 -7.44323
head 3.55476 10.4381 -2.38773
lclavicle 3.12589e-014 -9.54166e-015 0
lhumerus 87.0293 -36.5325 26.9757
lradius 85.5922 -0 0
lwrist 28.0404 0 0
lhand -9.86903 34.5679 -0.113249
lfingers 7.12502 -0 0
lthumb 16.1084 63.9105 -0.116767
rclavicle 3.12589e-014 -9.54166e-015 0
rhumerus -23.2779 40.3247 -71.3089
rradius 91.0361 -0 0
rwrist -30.8781 0 0
rhand -10.5932 -43.5797 0.0984286
rfingers 7.12502 -0 0
rthumb 15.41 -72.939 0.103275
1946
root 4.48891 13.908 28.3318 -43.2819 78.1687 -47.4767
lfemur -59.2238 -6.13283 1.4268
ltibia 36.3645 -0 0
lfoot 5.95503 -7.63978 0.12789
ltoes -27.6086 0 0
rfemur -8.10085 10.0617 22.6989
rtibia 66.978 -0 0
rfoot -23.895 -23.4073 -0.0848348
rtoes -36.0789 0 0
lowerback 13.972 4.15006 4.24433
upperback -0.57312 6.56919 3.23546
thorax -8.36371 3.09734 -0.297327
lowerneck -1.04755 15.4036 6.83446
upperneck 5.81127 20.9843 -7.49115
head 3.52489 10.3975 -2.39865
lclavicle 3.12589e-014 -9.54166e-015 0
lhumerus 88.7082 -36.7499 25.5166
lradius 88.9987 -0 0
lwrist 28.2462 0 0
lhand -10.565 34.9118 -0.109958
lfingers 7.12502 -0 0
lthumb 15.4378 64.3011 -0.114147
rclavicle 3.12589e-014 -9.54166e-015 0
rhumerus -22.3507 41.4733 -70.9492
rradius 91.4314 -0 0
rwrist -31.4048 0 0
rhand -9.96962 -43.2276 0.0960542
rfingers 7.12502 -0 0
rthumb 16.0107 -72.5425 0.100285
1947
root 4.34827 13.9301 28.369 -47.3927 78.9573 -51.7298
lfemur -59.0734 -7.00095 1.58132
ltibia 34.0803 -0 0
lfoot 6.30271 -8.14543 0.151741
ltoes -27.1935 0 0
rfemur -8.46095 10.8638 23.2331
rtibia 66.9266 -0 0
rfoot -24.0336 -23.3389 -0.0834135
rtoes -36.8518 0 0
lowerback 14.0042 4.07278 4.29791
upperback -0.597069 6.4797 3.22909
thorax -8.40371 3.0504 -0.319285
lowerneck -1.06794 15.3446 6.87764
upperneck 5.75761 20.9007 -7.54047
head 3.49408 10.3548 -2.41094
lclavicle 3.12589e-014 -9.54166e-015 0
lhumerus 90.2864 -36.9341 24.1284
lradius 92.3051 -0 0
lwrist 28.3573 0 0
lhand -11.2575 35.2462 -0.10257
lfingers 7.12502 -0 0
lthumb 14.7705 64.6815 -0.107087
rclavicle 3.12589e-014 -9.54166e-015 0
rhumerus -21.5028 42.5767 -70.6105
rradius 91.8464 -0 0
rwrist -31.9774 0 0
rhand -9.34601 -42.8796 0.0901682
rfingers 7.12502 -0 0
rthumb 16.6114 -72.1494 0.0936895
1948
root 4.20762 13.9523 28.4062 -52.2186 79.6901 -56.6967
lfemur -58.9351 -7.77852 1.65783
ltibia 32.0078 -0 0
lfoot 6.59172 -8.58085 0.169043
ltoes -26.8157 0 0
rfemur -8.82165 11.5786 23.7418
rtibia 66.871 -0 0
rfoot -24.1904 -23.2964 -0.0795587
rtoes -37.5566 0 0
lowerback 14.0365 3.99062 4.35595
upperback -0.619675 6.3851 3.22657
thorax -8.4426 3.00107 -0.338391
lowerneck -1.08893 15.2823 6.91615
upperneck 5.69851 20.8125 -7.59133
head 3.46238 10.3099 -2.42476
lclavicle 3.12589e-014 -9.54166e-015 0
lhumerus 91.7457 -37.0936 22.8129
lradius 95.4844 -0 0
lwrist 28.3856 0 0
lhand -11.9337 35.5663 -0.0915289
lfingers 7.12502 -0 0
lthumb 14.119 65.0463 -0.0960304
rclavicle 3.12589e-014 -9.54166e-015 0
rhumerus -20.7465 43.6233 -70.3
rradius 92.2753 -0 0
rwrist -32.5897 0 0
rhand -8.72837 -42.5423 0.0810691
rfingers 7.12502 -0 0
rthumb 17.2063 -71.7664 0.0838232
